Coordinates
version=1
nRows=21
nColumns=33
inDegrees=yes

Units are S.I. units (second, meters, Newtons, ...)
Angles are in degrees.

endheader
time	ground_thorax_rot_x	ground_thorax_rot_y	ground_thorax_rot_z	ground_thorax_tx	ground_thorax_ty	ground_thorax_tz	clav_prot_r	clav_elev_r	scapula_abduction_r	scapula_elevation_r	scapula_upward_rot_r	scapula_winging_r	shoulder_elv_r	plane_of_elev_r	axial_rot_r	elbow_flexion_r	pro_sup_r	wrist_flex_r	wrist_dev_r	clav_prot_l	clav_elev_l	scapula_abduction_l	scapula_elevation_l	scapula_upward_rot_l	scapula_winging_l	shoulder_elv_l	plane_of_elev_l	axial_rot_l	elbow_flexion_l	pro_sup_l	wrist_flex_l	wrist_dev_l
      8.71000000	    -22.26253646	    -33.71899920	     55.18593424	    -76.39413973	    778.72771507	      5.55927734	      7.98910607	    -45.00000000	     36.66785939	    -45.00000000	    -45.00000000	  -2257.82162156	  -1736.13780461	     29.78075146	     72.57840459	   1810.79189789	     32.37351997	     18.32723648	      9.84304881	     13.91474038	     37.61036437	    -31.17179782	    -45.00000000	    -45.00000000	   1879.73533795	  -3340.82159950	    138.93765130	    156.21496423	    366.89593589	     24.14484982	      9.10682745	    -18.88837169
      8.72000000	    -22.44796431	    -33.51391182	     54.99098532	    -78.61302373	    778.86872036	      5.36177216	      7.96121598	    -45.00000000	     36.61120035	    -45.00000000	    -45.00000000	  -2257.87799654	  -1735.81608685	     29.90213859	     72.12873515	   1811.06699824	     32.68894848	     18.44643497	      9.75524699	     14.01421744	     37.69586691	    -31.19069018	    -45.00000000	    -45.00000000	   1879.88750822	  -3340.64703091	    138.91261024	    156.38887609	    367.04011415	     23.67036366	      9.14725216	    -18.92788152
      8.73000000	    -22.80032085	    -33.23058832	     54.52793248	    -80.91022585	    779.07369333	      5.17631413	      8.01328723	    -45.00000000	     36.64396118	    -45.00000000	    -45.00000000	  -2257.90130187	  -1735.64136081	     30.09655357	     72.01177158	   1811.24012570	     33.09681553	     18.52722275	      9.64985544	     14.11885735	     37.80707022	    -31.29714217	    -45.00000000	    -45.00000000	   1879.93834374	  -3340.41937429	    138.91607627	    156.67459278	    367.17840488	     23.04621186	      9.12773159	    -18.94018856
      8.74000000	    -23.15745698	    -32.92236479	     54.04216591	    -83.28613491	    779.34607523	      5.00350909	      7.92517536	    -45.00000000	     36.68672990	    -45.00000000	    -45.00000000	  -2257.89866420	  -1735.39042877	     30.29419466	     71.64351540	   1811.43890643	     33.51101075	     18.62980940	      9.56671396	     14.20231786	     37.88105660	    -31.46414408	    -45.00000000	    -45.00000000	   1880.08622303	  -3340.26507004	    138.85534396	    156.90511611	    367.29045999	     22.31623774	      9.18001073	    -18.95317160
      8.75000000	    -23.45292750	    -32.64455948	     53.69502248	    -85.73786880	    779.68816504	      4.84605466	      7.95053424	    -45.00000000	     36.75305674	    -45.00000000	    -45.00000000	  -2257.98029872	  -1735.20662053	     30.44363268	     71.31452970	   1811.67141240	     33.96505403	     18.72266140	      9.44928984	     14.24562271	     37.86745313	    -31.60612209	    -45.00000000	    -45.00000000	   1880.25566983	  -3340.07825547	    138.77137817	    157.24787161	    367.33042508	     21.41805721	      9.27413777	    -18.93147455
      8.76000000	    -23.73608102	    -32.34554024	     53.28067700	    -88.26277642	    780.10151724	      4.70809547	      7.94096600	    -45.00000000	     36.78167105	    -45.00000000	    -45.00000000	  -2258.02557993	  -1734.90524561	     30.63927761	     70.99501725	   1811.87228425	     34.44992854	     18.80434689	      9.32521077	     14.33565394	     37.90470653	    -31.69827718	    -45.00000000	    -45.00000000	   1880.39552244	  -3339.94902079	    138.69586804	    157.69451690	    367.42336949	     20.31160926	      9.34803687	    -18.89085015
      8.77000000	    -24.02324854	    -32.07513819	     52.90430405	    -90.86393533	    780.58779926	      4.59492927	      7.92083815	    -45.00000000	     36.76568232	    -45.00000000	    -45.00000000	  -2258.14035752	  -1734.80926880	     30.86717462	     70.46874404	   1811.88455008	     34.95238850	     18.81817109	      9.17767456	     14.30586568	     37.69281148	    -31.89261729	    -45.00000000	    -45.00000000	   1880.72143347	  -3339.83950397	    138.51341893	    158.08319942	    367.43277807	     19.00425021	      9.67377941	    -18.84444643
      8.78000000	    -24.39519697	    -31.68514246	     52.41147387	    -93.53265074	    781.14544604	      4.51241430	      7.88212891	    -45.00000000	     36.85937031	    -45.00000000	    -45.00000000	  -2258.18814692	  -1734.50284382	     31.00208995	     70.34960792	   1812.16739664	     35.38600684	     18.90588087	      9.04289501	     14.47066063	     37.79318505	    -32.03228950	    -45.00000000	    -45.00000000	   1880.73521009	  -3339.61242753	    138.44080662	    158.72016414	    367.45152933	     17.56063682	      9.72861243	    -18.73687949
      8.79000000	    -24.73295297	    -31.33215157	     51.87919871	    -96.27140655	    781.77437982	      4.46413263	      7.90185987	    -45.00000000	     36.92505506	    -45.00000000	    -44.83633104	  -2258.30174653	  -1734.37671342	     31.22534021	     69.75784360	   1812.14418762	     35.74651346	     18.92895225	      8.96306950	     14.41281252	     37.61377736	    -32.24156953	    -45.00000000	    -45.00000000	   1881.00987440	  -3339.50586271	    138.26976478	    158.97318038	    367.56057665	     16.08688851	      9.99321266	    -18.67366495
      8.80000000	    -25.25546145	    -30.80415143	     51.02276907	    -99.06370741	    782.46914853	      4.45081829	      7.84340751	    -45.00000000	     37.14963815	    -45.00000000	    -43.97071497	  -2258.41604777	  -1734.17316070	     31.24156753	     69.57812519	   1812.33877730	     35.97820690	     19.02727628	      8.92012096	     14.50566050	     37.71985807	    -32.52464210	    -45.00000000	    -45.00000000	   1881.06552889	  -3339.33370754	    138.12500847	    159.46784640	    367.60142133	     14.70850795	      9.96859133	    -18.57976473
      8.81000000	    -25.59899477	    -30.44726089	     50.43571131	   -101.90406832	    783.22553986	      4.46916119	      7.83049586	    -45.00000000	     37.20534167	    -45.00000000	    -43.70211955	  -2258.51463863	  -1734.04628868	     31.42466243	     69.21303466	   1812.35816164	     36.10101811	     19.05419752	      8.83021179	     14.46498254	     37.62249932	    -32.67853992	    -45.00000000	    -45.00000000	   1881.21278356	  -3339.12451391	    138.02295141	    159.99196471	    367.75362723	     13.25508839	     10.23710920	    -18.52629476
      8.82000000	    -26.21523389	    -29.75904296	     49.25413998	   -104.78158359	    784.03734155	      4.51291364	      7.73127652	    -45.00000000	     37.55512992	    -45.00000000	    -42.13979631	  -2258.54155037	  -1733.77712311	     31.21949041	     69.08622390	   1812.51796725	     36.14764541	     19.23379692	      8.98477341	     14.64703019	     38.07019935	    -32.96593457	    -45.00000000	    -45.00000000	   1881.08236076	  -3338.91452723	    137.96788259	    160.35067307	    367.94873888	     12.18009766	      9.81916633	    -18.50387824
      8.83000000	    -26.79688485	    -29.14325252	     48.28121037	   -107.67853829	    784.89405036	      4.57399955	      7.60307271	    -45.00000000	     37.77662260	    -45.00000000	    -41.02244345	  -2258.68196998	  -1733.70952541	     31.16049271	     68.81573063	   1812.48844726	     36.12790718	     19.30575788	      8.99796626	     14.63047408	     38.15226686	    -33.32255306	    -45.00000000	    -45.00000000	   1881.14072742	  -3338.71767655	    137.82722084	    160.84379627	    368.10482057	     11.26725007	      9.85714881	    -18.52007960
      8.84000000	    -26.91490756	    -28.87126423	     48.13358770	   -110.59581403	    785.78879004	      4.64486084	      7.61474678	    -45.00000000	     37.80298785	    -45.00000000	    -41.58859467	  -2258.86707058	  -1733.41198735	     31.51283949	     68.51482620	   1812.60827531	     35.96170102	     19.26837121	      8.79738184	     14.70295434	     37.81426409	    -33.37220072	    -45.00000000	    -45.00000000	   1881.42072569	  -3338.58315188	    137.48121124	    161.83514351	    368.02510397	     10.15080522	     10.11767369	    -18.40890229
      8.85000000	    -27.36365762	    -28.38010610	     47.31243100	   -113.52469435	    786.71170613	      4.71893474	      7.53308607	    -45.00000000	     37.93018043	    -45.00000000	    -40.75097699	  -2258.84628744	  -1733.20440017	     31.45918685	     67.88383944	   1812.63184452	     35.82117124	     19.40738571	      8.91863546	     14.70376000	     38.06697673	    -33.67767450	    -45.00000000	    -45.00000000	   1881.51042573	  -3338.40647129	    137.51673797	    161.80908797	    368.22361537	      9.37932070	      9.88997510	    -18.45205397
      8.86000000	    -27.81435914	    -27.80848865	     46.50876315	   -116.46218656	    787.65309107	      4.79205621	      7.45078106	    -45.00000000	     38.11042770	    -45.00000000	    -39.82336199	  -2259.02785734	  -1733.06980503	     31.43407930	     67.76827093	   1812.62730740	     35.69260010	     19.45239931	      8.86562182	     14.70922992	     38.11624780	    -33.95705171	    -45.00000000	    -45.00000000	   1881.55853676	  -3338.20941194	    137.37288912	    162.44802147	    368.39417094	      8.59953442	      9.92906365	    -18.47263265
      8.87000000	    -28.12205109	    -27.42301697	     45.92050787	   -119.40898088	    788.60606778	      4.86171189	      7.37302880	    -45.00000000	     38.19777221	    -45.00000000	    -39.59441639	  -2259.11727414	  -1732.84326275	     31.63125756	     67.46489228	   1812.72486460	     35.49600181	     19.48464312	      8.77145028	     14.75993590	     38.03226203	    -34.12640025	    -45.00000000	    -45.00000000	   1881.73269833	  -3338.05846337	    137.20255232	    163.09579387	    368.38980377	      7.85555385	     10.00361975	    -18.44240203
      8.88000000	    -28.46071128	    -26.99304660	     45.33322458	   -122.35243756	    789.56105874	      4.92664592	      7.33557516	    -45.00000000	     38.27898483	    -45.00000000	    -39.06125841	  -2259.26022317	  -1732.67708324	     31.66312773	     67.25511011	   1812.78408742	     35.30638627	     19.52838622	      8.72392062	     14.79922601	     38.06923100	    -34.30567566	    -45.00000000	    -45.00000000	   1881.84255820	  -3337.85850643	    137.07392973	    163.64314054	    368.49508141	      7.12306462	      9.96679335	    -18.44783190
      8.89000000	    -28.75661100	    -26.58143360	     44.77982003	   -125.29771777	    790.51615042	      4.98779220	      7.30651094	    -45.00000000	     38.41766536	    -45.00000000	    -38.71122599	  -2259.36563180	  -1732.46667810	     31.73559467	     67.06766848	   1812.84955762	     35.09741996	     19.56745420	      8.66965050	     14.81050134	     38.04650426	    -34.46640322	    -45.00000000	    -45.00000000	   1881.94710416	  -3337.68818349	    136.94386438	    164.20457618	    368.54110982	      6.42657228	      9.98939915	    -18.44276239
      8.90000000	    -28.97935749	    -26.28509923	     44.38049689	   -128.22910158	    791.46470522	      5.04633785	      7.35711019	    -45.00000000	     38.43257233	    -45.00000000	    -38.69115543	  -2259.48692958	  -1732.32931745	     31.91447011	     66.90970393	   1812.85235889	     34.83595579	     19.54639722	      8.57035110	     14.83473418	     37.89589937	    -34.52791286	    -45.00000000	    -45.00000000	   1882.06746982	  -3337.48472005	    136.79405610	    164.77817584	    368.50775645	      5.68917288	     10.08623296	    -18.40018682
      8.91000000	    -29.26427099	    -25.90011304	     43.85802812	   -131.13837808	    792.40455022	      5.10549324	      7.33343235	    -45.00000000	     38.49918352	    -45.00000000	    -38.38769663	  -2259.59617890	  -1732.14708081	     31.97813343	     66.71230774	   1812.89486094	     34.53960590	     19.56731427	      8.52067051	     14.85003431	     37.88134764	    -34.69288791	    -45.00000000	    -45.00000000	   1882.20236985	  -3337.33160790	    136.68600744	    165.17774682	    368.58300170	      4.97459581	     10.08020304	    -18.40366041
